<svg xmlns="http://www.w3.org/2000/svg" viewBox="0 0 322.01 281"><g id="Calque_2" data-name="Calque 2"><g id="Calque_1-2" data-name="Calque 1"><g opacity="0.9"><path d="M191.05,1.1C119.81,3.51,71.49,14.25,48.58,33,29.45,48.36,9.47,82,2.21,110.28c-4.19,16.55-.28,84.91,7.4,128.63,2.1,11.88,1.54,22.49-1.39,28.94-.7,1.39,0,3,1.81,4.67,3.77,3.42,7.12,2.28,19.83-6.82,11.32-8,14.81-8.84,32.55-8a89,89,0,0,1,25.28,4.67c19.13,6.07,29.47,8.47,48.33,11.38,61.17,9,88.13,9,120-.13C279,267.09,292.17,259,302.64,245.1c5.59-7.45,7.13-11.24,12.57-30.32L321.5,193l-2.1-14.27c-1.67-10-2.51-30-3.35-68.49-.84-46.63-1.25-55.35-3.35-61.29-8.24-23.25-26.4-38.41-53.21-44.73-7.55-1.77-13.41-2.4-34.92-3.66C221.49.35,206.41.6,191.05,1.1Zm47.48,15.67c19.84,3.79,35.9,13.65,43.58,26.79,13.13,22.37,8.24,46.75-13.27,65a248.68,248.68,0,0,1-23,16.81C233.51,133.15,230.29,136.56,233,139c1.39,1.14,13.69-1.39,19.55-4.17,9.36-4.42,19.84-14.78,32.55-32.6L297.2,85.13l1,6.32c2,13.52,1.26,25.65-1.81,31.09-4.61,8.21-14.95,17.18-29.19,25.65-14.39,8.46-16.2,10-17,13.9-1.4,7.45,23.6-3,39-16.3,11.59-10.24,12.43-10.11,11.17,1.76-.84,8.22-5.59,18.71-11.17,24.77-5.31,5.56-18.86,11.75-28.5,12.89-7.4.76-8.1,1.14-8.1,4s.28,3.16,8.38,3c9.92-.13,19.84-4.17,29.75-12.26,3.63-2.91,8.1-6.32,9.92-7.84l3.35-2.52-1,9.47c-2.65,27.3-12.15,37.79-36,39.93-9.36.89-9.5.89-9.5,4.55v3.67l7.4-.89c6.29-.63,16.48-3.28,25.14-6.19,6.15-2.27-.28,10.87-9.49,18.83-16.76,14.78-57.69,26-94.7,26-12.43,0-18-.76-34.78-4.55-11-2.53-20.81-5-21.79-5.43-1.26-.64,3.35-5.44,14.53-15.17,19.13-16.68,20.11-18.57,20.11-40.81,0-16.17-2.79-24.26-11.31-33.11-6.71-6.82-20-13.14-30-14.15l-7.27-.76-.69-6.32c-2-15-15.37-25-26.54-19.83a33.8,33.8,0,0,0-6.15,4c-2.65,2.15-4.19,2.4-11.45,1.64-7.54-.76-8.52-.63-9.92,1.77-1,1.64-1.39,7.46-1.25,14.66l.41,12-10.75,6.32a120.63,120.63,0,0,0-19.69,15.29L20,189.51V171.82c0-39.43,8.52-72.66,24.3-94.14,8-10.74,22.21-25.27,33-33.49,14.39-10.86,24.17-15.29,37.3-16.68,6-.63,14.66-2,19.27-3,10.62-2.53,18-2.53,20.81,0,2.38,2,2.93,6.32,1.4,10-1.12,2.66-9.78,6.57-18.16,8.22-16.76,3.41-24.44,9.85-29.19,24.38-5.31,16.43,3.21,31.85,21.51,39.18,5.45,2.14,8.24,2.4,23,1.76,35.19-1.39,59.5-12.25,68.85-30.7,3.08-6.19,3.5-8.21,2.94-18.83-.42-10.23-.84-12.26-3.63-14.91-4.33-4-12.72-5.94-27.1-5.94-6.43,0-12.43-.5-13.55-1.13s-1.82-3.42-1.82-7.59c0-6.82,2.38-10.74,8-12.89C191.74,14.25,227.92,14.75,238.53,16.77ZM173,44.7c2.93,5.56,1.95,5.43,25.28,3.54,11.45-.89,11.45-.76,15.78,3,9.08,8.34,2.94,22.36-15.08,34C186.16,93.6,176.1,97,160.32,98.53c-20.39,2-31.43-.38-39.81-8.47-2.79-2.65-3.49-4.93-3.91-12-1.26-19.34,4.19-23.63,34.64-27l13.27-1.52,1-11.62c1.25-17.7,2.79-20.85,3.91-8.34C170,35.47,171.49,41.92,173,44.7Zm-70.54,91.36c7.83,7.07,4.19,15.29-6.7,15.29h-6v-8.6c0-4.8.42-9.09,1-9.47C92.86,131.25,98.72,132.64,102.49,136.06ZM72.74,140.6a29,29,0,0,1-.42,8.09l-1.11,5.81-1.82-3.79c-2-4-2.51-11-1-12.51S72.32,138.08,72.74,140.6Zm40.79,20.73c20,2.15,34.08,9.22,39.25,19.71,3.21,6.19,3.49,21.1.69,30.45-4.47,15.17-12.57,23.76-32,34.37L112,251l-9.36-3.28c-14.94-5.18-17-5.56-30.31-5.56a114.82,114.82,0,0,0-38.54,6.32c-4.06,1.39-7.69,2.27-8.11,2-1-.89-5.58-31.85-5.72-37.66,0-6.06,1.12-7.83,11.87-20.47,17.46-20.22,28.49-26.91,52.38-31.59C91.88,159.31,94.11,159.31,113.53,161.33Z" fill="#bc3834" stroke="#bc3834" stroke-miterlimit="10"/><path d="M79.31,189.88c-5.73,5.06-3.91,18.2,3.49,24.9,5.31,4.67,9.08,4.55,12.57-.63,6.43-9.35,7-19.84,1.26-25C92.72,185.59,83.64,185.84,79.31,189.88Zm11.31,10.24a12.9,12.9,0,0,0-.84,3.41c0,2-2.79-1.77-2.79-3.92,0-.75,1-1.51,2.24-1.51C90.76,198.1,91.18,198.73,90.62,200.12Z" fill="#bc3834" stroke="#bc3834" stroke-miterlimit="10"/></g></g></g></svg>