<svg xmlns="http://www.w3.org/2000/svg" viewBox="0 0 414 400.45"><g id="Calque_2" data-name="Calque 2"><g id="Calque_1-2" data-name="Calque 1"><g opacity="0.9"><path d="M219,1.12C140.08,13,89.28,32.64,61.17,62.55,51.45,73,48.56,77.5,43.52,91c-3.42,9-9.55,23.06-13.69,31.52-14.95,30.09-27.2,73-29,101.78C-.62,246.47,3,311.32,6.41,327.9c3.42,15.31,10.09,31.34,15.85,37.47,10.27,11,21.26,11.89,48.28,3.6,17.84-5.41,19.28-5.59,32.25-3.6,7.38,1.08,35.3,8.46,62,16.57,52.42,15.67,63.41,17.83,88.81,18,27.56,0,52.42-6.12,81.42-20.35,27.56-13.33,49-39.45,59.45-72.42,5.58-16.93,14.77-72.78,18.19-108.27,2.88-31.52-1.44-64.31-12.43-91.51-20.35-50.62-63.95-89.17-115.65-102C269.78,1.66,231.59-.68,219,1.12Zm66.65,30.26c38.19,10.63,71.7,29.55,83.59,47,4.14,6.3,12.43,37.65,19.27,74.76,5.05,26.3,4.69,83.4-.72,113.67-5.4,29.9-11.17,48.46-19.27,60.53-6.67,9.9-29.37,34-30.81,32.42-.36-.36.36-4,1.8-8.1s3.61-14.06,4.87-22.16c5.4-37.65-6.85-77.28-32.79-105-14.77-15.85-28.28-23.41-48.46-27.56-8.1-1.62-16.57-4.5-19.09-6.3-7-5.59-12.79-17.3-17.84-35.67-4.86-18.37-5.4-29-2.7-45.94,1.26-7.38,1.08-15.67-.18-26.66-1.8-13.15-2.52-15.67-5.4-15.67-2.52,0-3.43,2-4.33,8.47-5.22,38.73-12.61,69-22,89.71-3.61,7.92-6.85,17.83-7.21,22.16-.9,7.56-1.08,7.74-14.77,14.59-7.57,4-17.47,10.45-22.16,14.59-16,14-41.43,57.64-50.08,85.57C94,312.94,92.16,333.12,94,340.33c.54,1.8-5.95,4.68-22.7,10.26-13,4.33-24.86,7.93-26.48,7.93-7,0-15.85-5.94-17.83-12.43-2.89-8.83-.9-98.72,2.88-126.28,8.47-62.15,33-117.45,65.57-148.08,30.44-29,91.33-47.37,149.7-45.57C263.83,26.7,273,27.78,285.63,31.38ZM216.1,154.06c2.16,8.83,5.58,19.81,7.56,24.14,1.8,4.32,3.06,8.28,2.7,8.65-.9.9-30.62,4-31.34,3.24-.18-.18,2.34-10.09,5.58-21.8,3.43-11.71,6.85-24.14,7.57-27.38C210,132.62,211.59,135.14,216.1,154.06Zm32.24,51.16c23.06,6.66,50.62,22.88,63,37.11,18.92,21.44,24.68,54.4,17.47,99.26-2.88,18.19-6.12,26.66-11.34,29.18-5.77,3.06-45.94,7.75-65.76,7.75-30.8,0-37.29-1.26-92.77-18.38-19.09-5.76-39.27-11.17-44.85-11.71l-10.09-1.26L105.13,329c3.24-59.45,38.73-113.85,82.14-126.46C199.16,199.09,231.59,200.54,248.34,205.22Z" fill="#3d7665" stroke="#3d7665" stroke-miterlimit="10"/><path d="M114.5,94.43c-6.85,2.88-20.9,18.38-25.22,27.56-7.93,16.58-4.69,32.25,8.28,41.26,6.13,4.14,8.11,4.68,16.22,3.78,21.07-2.52,34.4-18.37,34.76-41.43.18-14.41-1.62-23.24-6.3-29-3.06-4-5.05-4.68-13-4.68C124,92.09,117.38,93.17,114.5,94.43ZM136.11,109c5.77,5.59,5.95,15,.18,27.21-5.4,11.88-12.61,16.93-23.42,16.93-11.88,0-16.21-4.69-15-16.21,1.44-11.35,8.65-25.22,15.13-29.19C120.62,103.08,130.89,103.62,136.11,109Z" fill="#3d7665" stroke="#3d7665" stroke-miterlimit="10"/><path d="M291,94.79c-7,3.61-15,11.17-18.2,17.48-1.44,2.7-3.24,10.44-4.14,17.29-3.07,23.6,3.42,36.75,18.91,39.09,9.91,1.44,21.62-2.7,30.63-10.45,14.77-13,14.05-44.49-1.44-60.35-4.69-4.86-7.21-5.94-13-5.94A31.77,31.77,0,0,0,291,94.79ZM306,108.12c11.53,7,16,21.26,10.26,32.25-3.24,6.3-12.42,14.23-18.19,15.67-11.89,3.06-18.73-5-18.73-22.16,0-12.07,5.4-23.42,12.61-27C297.88,103.8,299,104,306,108.12Z" fill="#3d7665" stroke="#3d7665" stroke-miterlimit="10"/><path d="M213.57,266.83C197,275.66,188,289.71,190,303.58c1.62,9.72,8.28,16.39,19.63,18.91,7.39,1.62,9.91,1.44,16.57-1.62C242.94,313.49,252.3,302,252.3,289,252.3,269.89,230.87,257.64,213.57,266.83Zm24.32,9.73c11,5.58,7.93,19.81-6.12,30.08-8.11,5.76-18,6.66-26.3,2.34-10.63-5.4-8.29-18.73,5.22-29.9C218.08,273,229.07,272.05,237.89,276.56Z" fill="#3d7665" stroke="#3d7665" stroke-miterlimit="10"/></g></g></g></svg>