<svg xmlns="http://www.w3.org/2000/svg" viewBox="0 0 323 281"><g id="Calque_2" data-name="Calque 2"><g id="Calque_1-2" data-name="Calque 1"><g opacity="0.9"><path d="M174.34,1.83c-6.5.85-19.51,2.07-29.06,2.43-12.73.61-20.06,1.7-27.68,3.89-11.9,3.52-39.43,15.68-54.1,24.06C27.52,52.63,10.77,82.65,3.58,139.4c-3,24.06-3.74,45.33-2.49,82.39,1.24,34.28,2.07,39.74,6.78,41.2,3,1.1,5.26-.36,12.45-8.26,16.61-18,29.48-16.77,87.46,8.38,33.21,14.47,40.41,16.29,67.94,17.26,30,1.09,69.47-4.86,86.91-13.12,23.66-11.06,43.31-24.92,48.85-34.15,3.87-6.69,7.75-22.61,9.41-38.65,2.49-23,1.93-101.72-.56-115.45-2.49-13.37-8.85-30.75-13.7-37.43C296.25,27,267.89,12.89,231.77,4.14,216.27.37,191.78-.6,174.34,1.83ZM210.6,20.06c29.89,3.65,52.58,10.57,64.9,19.81,10.79,8.14,22.28,25.88,26.7,41.68,2.36,8.14,5,35.85,5,52.38,0,10.82.55,10.45-12.74,8.14l-7.61-1.33-1-23.94c-.83-25.28-1.67-30.63-6.37-46.18-7.61-24.43-21.45-33.55-55.77-36.71-16.74-1.45-52.72.37-75.69,4-8.72,1.34-16.88,2.31-18,2.19-18-2.19-26.85,1.7-48.57,20.66C63.36,76.69,55.33,88,55.33,98c0,6.44,1.52,6.8,4.57,1.21,9.82-18.22,29.75-40,43.59-47.76,10.1-5.71,25.18-10.57,27.12-8.87s1.66,18.11-.55,27.59c-2.08,9-9.41,22.6-15.64,28.92-6.78,7-17.43,11.67-27.81,12.4-10.66.85-23-1.34-27.13-4.74-3.73-3-3.87-2.92-9.82,11.18-2.49,6.2-4.57,13.85-5,19.08-.83,8.38-1,8.75-5.12,10.33s-19.24,2.19-20.76.85c-1.11-1,5.12-23,9.69-33.91,11.07-27.1,30.44-52.13,52.17-67.57,19.51-13.73,47.74-24.18,73.2-27.1C168.53,17.87,194.13,18.12,210.6,20.06Zm-5.26,28.8c.41,3.53.83,10.94.83,16.29,0,11.91,3.32,29.41,6.78,36.45s11.62,14.47,18.82,17.5c8.58,3.65,23.66,4.5,35.84,2,5.26-1.09,9.69-1.82,10-1.58s-.14,5-1.1,10.69c-1,6.81-2.36,10.82-4,12.16-3.87,3-25.18,5.22-44.56,4.37-24.77-1-30.44-2.43-38.33-9.24-10.24-9-11.9-14.58-11.35-39.61.28-18.23-1.93-42.66-4.7-50.56-.83-2.79,6.64-4.49,20.34-4.62l10.52-.12ZM237,44.49c6.78.73,17.16,5.34,22,9.84,8.16,7.41,16.33,28.44,16.33,41.56,0,12.4-3.18,15.44-18.13,17.75-12,1.94-28.37-4.38-34.46-13.13-4.42-6.2-5.25-11.06-6-35.12l-.55-22.85,7.75.61C228.31,43.51,234.12,44.12,237,44.49ZM162.3,51.05c.69,2.31,1,18.23.55,35.24-.69,36.95-1.93,42.54-11.2,49.1-13.43,9.6-27.4,13.12-52,13.25-15.77,0-24.9-1-39-4.14-4.84-1.09-5.26-1.58-5.26-5.59a82.59,82.59,0,0,1,1.52-12.15c1.25-6.2,1.94-7.66,3.88-7.17,18.54,4.74,18.68,4.74,27.12,3.28,11.76-2.19,20.48-6.68,31.41-16.28C134.9,92.73,141,78.39,141.13,55.67c0-9.24.14-9.36,12.31-9.12C160.92,46.8,161.06,46.92,162.3,51.05Zm13.42,82.52c3.05,5.59,5.54,10.2,5.54,10.45s-1.25,1.09-2.91,1.82c-2.07,1.09-4.15.85-9-.73-3.32-1.09-6.09-2.43-6.09-2.79a69.18,69.18,0,0,1,2.77-7.78c1.52-3.77,2.77-8,2.77-9.48C168.81,121.41,169.5,122.14,175.72,133.57Zm123.16,17.5c7.75,2.3,10.38,7.77,10.24,20.9-.14,8.87-.83,12.64-4,20.05-3.87,9.24-4.43,12.76-2.77,21,3.19,15.32-20.48,33.79-54.66,42.9-22.14,5.84-57,8.75-80.26,6.57-31.13-2.8-48.29-7.54-85.66-23.09-25-10.46-27.67-10.7-49.81-3.77l-15.23,4.86L16,234.19c-3.73-32-5.12-54.57-3.6-61a22.39,22.39,0,0,1,16.2-16.4c9-2.31,31.13-3.89,41.65-3,11.48,1,16,3.4,22.69,12.64,5,6.93,5.12,12.76.42,18.35-3.32,4-4.57,9-2.36,10.21s10.11-4.5,12.74-9.12c3.32-5.59,3.46-9.23.69-18.1a68.41,68.41,0,0,1-2.08-7.9c0-.73,5.12-2.56,11.49-3.89,10.38-2.43,13.28-2.56,33.49-1.7,12.17.48,23.52,1.58,25.18,2.3,4.15,2.07,4.57,4.87,1.52,14.95-4.15,13.37-4,13.86,1.53,13.61,7.75-.24,10.51-3.89,10.51-13.49a65.67,65.67,0,0,0-1-12.15l-1-3.89,16.19.12c29.06.25,44.14,1.46,46.91,3.77,2.21,2.07,2.21,2.67-.69,13.37-1.67,6.2-3.05,12.76-3.05,14.58,0,3,.28,3.16,4,2.07,5.68-1.7,9.41-5.71,11.35-12.28,1.66-5.46,1-11.78-2.07-18.22-.83-1.58.55-2.44,7.05-4.62C278.4,149.61,290.17,148.51,298.88,151.07Z" fill="#bc3834" stroke="#bc3834" stroke-miterlimit="10"/></g></g></g></svg>