<svg xmlns="http://www.w3.org/2000/svg" viewBox="0 0 414 364.45"><g id="Calque_2" data-name="Calque 2"><g id="Calque_1-2" data-name="Calque 1"><g opacity="0.9"><path d="M259.45,1C222.79,4.59,135.64,15.2,126.67,17.16c-6.17,1.3-19.08,5.71-28.62,9.79C51.3,46.71,15.77,97.15,4,160.65c-1.3,7-2.43,45.55-3,99.09-.93,84.73-.75,87.83,2.43,87.83,4.49,0,10.66-3.75,21.7-13.39,13.46-11.59,17.58-13.06,39.64-13.06,22.63,0,26.94,1.31,58.92,16.66,26,12.4,36.84,16.16,64.7,22.2,38.9,8.16,91.64,3.59,138.4-12.25,41.7-14,71.25-39.34,82.28-70.36,6.74-18.77,5.61-87.82-2.05-148.55-2.25-18.28-4.49-26.61-12.91-48.65C388.49,65.48,381,49.32,377.46,44.26,358,16.5,327.52,1.81,286.75.67,275.91.34,263.56.51,259.45,1ZM315,26.14C327,28.42,339.87,34,347.16,40c6.17,5.23,16.08,18.29,16.08,21.55,0,1.8-9.35,2-56.48,1-76.67-1.47-107.72,2-145.68,16.33C94.5,104,66.26,138.12,53.54,208.48c-2.43,13.06-3.18,27.1-3,56.16l.19,38.69-6.92,2a92.12,92.12,0,0,0-16.27,7.51c-5.05,2.94-9.91,5.39-10.66,5.39-2.06,0-1.87-55,.37-85.55C20.44,188.73,27.92,163.75,48.12,128,69.07,91.11,79.91,77.07,94.87,67.11c15.34-10,44.14-22.85,65.46-28.89C194.37,28.42,288.06,21.24,315,26.14Zm26.37,50,31.05,1,3.74,9.14c10.28,24.33,13.09,49.14,13.65,121.78.56,55,.56,55.67-3.74,65-10.47,22.36-37.4,43.91-76.12,60.72-25.62,11.27-44.32,15.51-67.7,15.51-26.37,0-41.7-3.59-89-20.57-41.89-15.18-69.38-23.83-81.91-25.95l-6.36-1L66.26,254c1.12-49.63,3.55-69.05,11-90.11,12.16-35.43,34.23-57.79,63.4-64.49,4.68-1.14,19.27-5.87,32.36-10.77C194,81,204.09,78.54,223,75.93,231.4,75,309.38,75,341.36,76.09Z" fill="#2d597e" stroke="#2a8edc" stroke-miterlimit="10"/><path d="M287.88,133.39c1.12,17,.93,17.79-3.37,22-6.17,6.2-50.49,20.73-63,20.73s-24.31-3.43-39.64-11.26c-24.69-12.9-29.36-11.92-12.35,2.45,11,9.3,23.19,13.71,37.78,13.71,9.35,0,9.35,0,10.66,24.49.94,16.81,4.49,25,12.53,28.56,7.86,3.59,12.34,2,17.39-6.2,3.56-6,4.12-9.31,4.12-27.26,0-11.27.75-21.22,1.49-22.37.75-1,6.92-3.26,13.84-5.22,14.4-3.76,26-11.27,29.74-19.1,3.55-7.18,3.37-24.16-.19-30a18.6,18.6,0,0,0-6.54-6.53C286.75,115.76,286.75,116.09,287.88,133.39Zm-55.55,55.18c1.12,2.28,1.87,11.59,1.87,20.73-.18,16-.18,16.49-2.8,11.1-6-11.92-7.67-36.08-2.62-36.08C229.71,184.32,231.4,186.28,232.33,188.57Z" fill="#2d597e" stroke="#2a8edc" stroke-miterlimit="10"/></g></g></g></svg>