<svg xmlns="http://www.w3.org/2000/svg" viewBox="0 0 322 280.37"><g id="Calque_2" data-name="Calque 2"><g id="Calque_1-2" data-name="Calque 1"><g opacity="0.9"><path d="M151.18,1.2C128.62,3.63,107.55,8.9,91.1,15.82,55.76,30.83,25.18,64.06,12.81,101,3.57,128.6-.51,177.48.71,246.38L1,267.29l3.13-.77c1.63-.51,9.38-3.46,17.13-6.67,23.38-9.75,33.84-9.24,63.34,2.82,19.71,8.09,34.25,12.58,50.43,15.53,9.92,1.79,17.13,1.92,40.64,1.41,31.81-.9,43.09-2.18,60.35-6.8,26-7.06,43.91-18.22,58.32-36.44C306.69,221,314,204.94,319.06,182.49c2.44-11.17,3.26-40.16,1.49-57.1-1.77-17.58-11.15-63.51-15.09-74.28-11.14-30.54-36-45.29-83.59-49.53C208,.43,160.56,0,151.18,1.2Zm62.53,22.19c26.24,2.83,46.22,9.37,57.09,18.48,4.89,4.1,5,4.62,2,4-26.23-5-66.47-7.19-89-4.62C167.09,43,126,50.85,116,54.19,99.26,59.57,90.29,64.83,78.33,76c-8.7,8.21-12.92,13.47-17.13,21.17-5,9.23-21.34,54.78-26.78,74.41-2.58,9.75-4.89,32.08-4.89,48.75,0,14.89-1.36,20.79-6.12,25.54-6.25,6.41-14.27,3.08-14.27-6.16,0-3,1.49-12.45,3.26-21.3s3.94-22.71,4.9-30.79c4.89-48.24,11.41-73,26.5-101.49,17.81-33.48,44.59-51.45,88.35-59.4C155.81,22.37,190.74,21,213.71,23.39Zm33.58,26.3c13.32,2.57,30.58,10.78,39,18.48a54.62,54.62,0,0,1,16.31,29.89c.68,4.37,1.77,24,2.17,43.37,1.09,40.16.41,45.67-8.29,61.84-15.49,29.25-28.95,40.41-56.68,47.21-14.54,3.47-27.46,4.88-55.32,5.91-26.78.89-27.87.77-68.38-10.27-30.85-8.34-45.94-10.52-59.8-8.85-6.12.77-12.24,1.8-13.6,2.31-2.58,1-2.58.13.55-39.13,3.26-40.8,11.42-74.93,23.38-96.87,8-14.88,23.51-29.25,39-36.31,14.41-6.67,20.93-7.95,63.88-13.6,19-2.44,36.16-4.75,38.06-5C216,47.39,238.18,47.9,247.29,49.69Z" fill="#3d7665" stroke="#3d7665" stroke-miterlimit="10"/><path d="M193.46,69.2c-1.77,7.57-3.4,23.22-3.54,31.94-.13,24.77-13.32,38.11-46.62,47.22C125.9,153.1,117.61,154,102,153c-7.75-.52-16.31-.52-19,0-5.85.89-11.28,3.46-11.28,5,0,2.18,25.14,3,41.59,1.15,8.84-.89,22.29-1.66,29.77-1.66,15.49,0,22.43,2.43,28.27,9.88,7.61,9.49,8.43,14.37,8,47.21-.27,30.15-.27,30.15,2.31,26.94,4.9-5.77,5.58-12.06,3.94-30.28-1.9-20.65-.54-28.09,6.8-37.59,8-10.39,9.52-10.65,42.95-10.13,24.2.25,29.36.13,31.4-1.54s0-2.06-22.56-2.57c-25-.64-25.15-.64-34.12-4.87-10.19-4.75-16.58-10.78-18.89-18.09-1.36-4.24-1-7.83,2.17-23.87,3.54-18.35,6.39-43.88,5.17-45.93S194.14,66,193.46,69.2ZM187.07,144a16.5,16.5,0,0,0,6.66,8.59c2.72,1.93,5.3,3.72,5.71,4s-.54,1.28-2,2.31a106.27,106.27,0,0,0-9,7.7l-6.25,5.77-6.53-8.47c-4.08-5.39-7.88-9.11-10.33-9.88l-3.94-1.28,6.25-5.39C180,137.07,184.62,136.17,187.07,144Z" fill="#3d7665" stroke="#3d7665" stroke-miterlimit="10"/><path d="M124,80.74c-9,1.8-12.91,5.65-12.91,12.45,0,5,5,9.75,10.19,9.75,6.93,0,11.15-2,13.73-6.54,3-5.52.68-13.48-4.35-15.27A20.93,20.93,0,0,0,127,80,29.9,29.9,0,0,1,124,80.74Zm4.76,10.65c0,2.57-4.49,5.65-7.21,4.75-1-.26-.27-1.16,1.5-2s3-2.31,3-3.34.68-1.92,1.36-1.92S128.76,90,128.76,91.39Z" fill="#3d7665" stroke="#3d7665" stroke-miterlimit="10"/><path d="M233.69,88.83c-6.52,2.56-7.07,13.72-.81,21.42,6.39,8,16.31,6.42,20.52-3.21,2.59-5.77,1.5-11.29-3.26-15.9C246.33,87.29,240.08,86.52,233.69,88.83Zm10.88,9c3.12,0,3.8.51,3.8,3.08,0,5-1.49,7.18-4.75,7.18-4.35,0-7.89-3.59-6.94-6.93a23.19,23.19,0,0,0,.82-4.62c0-1.41.41-1.41,1.63-.25C240.08,97.17,242.53,97.81,244.57,97.81Z" fill="#3d7665" stroke="#3d7665" stroke-miterlimit="10"/><path d="M98.17,191.85c-6.93,6.54-8,19.5-2,24.64s24.61-2.57,27.73-11.3c1.91-5.13-1.9-11.67-8.56-15C107.55,186.46,103.47,186.85,98.17,191.85Zm20.39,7.31c1.23,1.8-7.88,10.27-11,10.27-2.72,0-8.7-4.88-8.7-7.06,0-.9,1.36-2.18,3.13-3C105.78,197.63,117.47,197.5,118.56,199.16Z" fill="#3d7665" stroke="#3d7665" stroke-miterlimit="10"/><path d="M223.77,202.76c-10.6,10.13-10.47,17.57.54,21.17,8.16,2.56,11.83.89,14.14-6.68,2.85-9.36-1.09-20.65-7.2-20.65C230.7,196.6,227.44,199.42,223.77,202.76Zm9.92,7.05c1.23,2.18.95,3.08-1.63,5-3.8,2.82-7.61,3-8.7.25-1-2.43.27-7.18,2.18-8.34C227.85,205.32,232.06,207,233.69,209.81Z" fill="#3d7665" stroke="#3d7665" stroke-miterlimit="10"/></g></g></g></svg>