<svg xmlns="http://www.w3.org/2000/svg" viewBox="0 0 323 281"><g id="Calque_2" data-name="Calque 2"><g id="Calque_1-2" data-name="Calque 1"><g opacity="0.9"><path d="M187.77,2.59c-9.5,1.38-29.33,3-44.06,3.65C99.93,8.38,79.56,14.67,60.42,32.16c-16,14.48-32.62,39.27-41.16,61.05-6.2,15.48-9,28.19-13.9,64.69C-2.08,212-1.12,235.3,9.21,242.22c3.3,2.27,4.27,2.39,8.67.88a88.57,88.57,0,0,0,11.71-5.41c6.33-3.65,7.29-3.9,16.93-3.15,12.66.88,28.08,6.42,58.1,21.27,19.54,9.69,24.5,11.58,46.67,17.37,37.72,9.94,45.29,9.82,88.1-.75,22.58-5.67,35.94-10.7,48.05-17.88,15.42-9.31,20.51-19.25,28.22-55.75,6.2-29.83,7.44-42,6.61-63.31-1.24-31.59-7.16-55-19.55-78.15C290.06,33.68,275.19,18.7,255.5,9.64,235.4.32,217-1.56,187.77,2.59Zm22.71,18.75c23.13,5.16,49,15.1,58.38,22.28C272.3,46.26,280,57.34,280,59.6c0,1.13-35.11,2.39-90,3.4-62.5,1.13-63.88,1.26-95.82,10.7C74.6,79.49,57.26,87.29,46.93,95.09c-4.27,3.15-7.85,5.29-7.85,4.79S42.8,92,47.34,83.39c9.37-17.75,20.1-32.47,28.09-38.89,7.43-5.79,38.41-19.63,53.14-23.66,11.43-3.15,12.53-3.15,41.3-2.65C192.86,18.7,202,19.45,210.48,21.34ZM252.2,69c35.52,1,33.18.13,39.37,15.1,7.3,17.25,8.95,25.3,9.91,44.18.69,14.6.28,22.91-2.06,40.4-6.33,47.07-9.09,57.64-17.35,66.33-2.48,2.64-4.95,4.4-5.5,4s.41-11.07,1.92-23.41c3.44-27.18,3.58-31.59.69-43.42-1.24-5-3-12.58-3.85-16.74-1.52-6.79-2.07-7.55-5.1-7.55s-3.3.51-2.89,4.41c.14,2.39,1.65,9.44,3.17,15.73,3.58,13.59,3.71,33.35.55,50.47-4.27,22.28-13.22,33.35-29.19,36.12-5.5,1-5.5.5-1.93-13.59,4.82-18.88,6.2-29,6.2-47.2-.14-19.26-2.75-31.09-8.26-36.62-2.34-2.39-6.06-3.28-6.06-1.51,0,.63,1,15.85,2.07,34,2.34,37.13,1.65,46.94-4.27,58-2.2,4-5.37,7.68-7.85,9.19-4.82,2.64-11.7,4.27-12.94,3.14-.55-.38,1.52-11.58,4.27-24.79,6.19-28.45,6.33-39.9.41-57.77-3.3-9.94-7.71-16.11-10.6-14.47-1.24.63,1,8.81,4.82,18.25,1.24,3.14,2.62,10.19,2.89,15.73.69,9.19.14,12.21-6.33,35.24-8.12,28.94-8.81,30.08-21.34,31.46-9.64,1.13-30-1.13-41.16-4.53-4.68-1.38-18.59-8.31-31.12-15.35C89.61,232,69.23,223,63.59,222.84c-1.38,0-2.48-.51-2.48-1.13,0-1.51,9.78-7.3,13.91-8.19,3.3-.62,3.71-.25,5.78,6.8,1.38,4.15,2.89,7.55,3.58,7.55a44.34,44.34,0,0,0,8-2.64c5.78-2.27,8.13-2.52,20.1-1.76,15.83,1,17.35.38,21.07-9.69,2.75-7.81,8.81-11.58,25.88-16.62s17.9-4.65,18.72,6.17c.55,7.93,1,8.81,3.44,8.43,4.82-.63,9.36-6.42,8.54-10.82-1.38-7.55-3.58-10.95-8.4-12.71-6.75-2.65-15.14-1.26-33.18,5.16-18.45,6.42-25,7.67-48.18,8.56-25.75,1.13-32.77,2.89-46,12A81.47,81.47,0,0,1,20.5,227.37l-5.51.75.42-24.41c.68-47.07,7.29-71.24,24-87.35C48.72,107.3,55.19,103.78,83.55,92c35.8-15,49-18.63,71.45-20.14,15.7-1,35.93-2.64,51.35-4.15a59.5,59.5,0,0,1,9.64,0C219,68,235.4,68.54,252.2,69ZM126.78,207.74c.28,1-.83,3.77-2.34,5.91-2.34,3.65-3.44,4.15-8.81,4.15-7.85,0-10.74-2.76-6.75-6.41,3-2.77,12.26-6.3,15.56-5.79A2.81,2.81,0,0,1,126.78,207.74ZM102.14,209c.13,1.14-1.79,4.28-4.41,6.93-4,4.28-5.09,4.78-7.29,3.65a15.84,15.84,0,0,1-4.55-4.66c-1.79-2.9-1.79-3.52.69-5.92,2.07-2.14,3.86-2.51,8.81-2.26C99.8,207,101.86,207.74,102.14,209Z" fill="#bc3834" stroke="#bc3834" stroke-miterlimit="10"/><path d="M246.55,95.47c-3.3,3.27-4.54,11-2.34,13.47,1.93,2,10.47,2.51,13.63.75,2.76-1.63,2.2-8.81-1-12.58C253.57,93,249.58,92.45,246.55,95.47Z" fill="#bc3834" stroke="#bc3834" stroke-miterlimit="10"/><path d="M279.87,95.85c-1.65,2.89-.14,5.41,2.34,3.9A8,8,0,0,0,284.69,96C286.06,92.32,282.07,92.2,279.87,95.85Z" fill="#bc3834" stroke="#bc3834" stroke-miterlimit="10"/><path d="M211.86,97.61c-1.93,1.64-3.44,3.52-3.44,4,.14,5.66,9.77,4.91,13.77-1.26,1.51-2.14,2.34-4.28,1.92-4.91C222.6,93.33,215.16,94.46,211.86,97.61Z" fill="#bc3834" stroke="#bc3834" stroke-miterlimit="10"/><path d="M172.07,104.78c-4.13,5.29-1.92,9.82,4.82,9.82,4.55,0,8.12-4,8.12-9.06,0-3.27-.41-3.52-5.36-3.52C175.52,102,173.59,102.77,172.07,104.78Z" fill="#bc3834" stroke="#bc3834" stroke-miterlimit="10"/><path d="M105.17,113.72a135.51,135.51,0,0,0-18.59,6.92c-9.5,4.66-22.72,15.23-22.72,18.25s8.27,11.08,13.36,13c6.19,2.4,21.75.38,40.34-5.28,22.71-6.92,36.34-16.74,36.34-26.43,0-7.55-2.61-8.69-21.61-8.94C118.11,110.83,113.84,111.33,105.17,113.72Zm29.32,6.8,9.64,2.14-5.37,4.28c-7.3,5.78-28.36,15-38.41,16.73s-20,.63-24.37-2.76l-3.17-2.4,7.3-6.29c4-3.52,8.12-6.29,9.09-6.29s3,1.63,4.68,3.77c5.78,7.05,18,3.78,23.68-6.29C120.72,117.62,121.27,117.62,134.49,120.52Zm-28.64,2.89a4,4,0,0,1-2.89,1.26c-1.1,0-1.65-.63-1.24-1.26a3.62,3.62,0,0,1,2.9-1.26C105.72,122.15,106.27,122.66,105.85,123.41Z" fill="#bc3834" stroke="#bc3834" stroke-miterlimit="10"/><path d="M36.61,162.68c-1.93,1.76-2.21,6.79-.55,7.8,2.06,1.13,7.15-.75,7.15-2.52,0-2,2.21-2.39,3.45-.37,1.65,2.39-5.79,10.69-12,13.46-3.31,1.39-6.88,3.4-7.85,4.53-1.65,1.77-1.24,2,2.76,2,15.14-.13,27-14.22,19.68-23.66C46.93,160.79,39.5,160,36.61,162.68Z" fill="#bc3834" stroke="#bc3834" stroke-miterlimit="10"/></g></g></g></svg>