<svg id="_9" data-name="9" xmlns="http://www.w3.org/2000/svg" viewBox="0 0 219.75 305"><path id="path2163" d="M112.38,231a25,25,0,1,1-25,25A25,25,0,0,1,112.38,231Z" stroke="#000" stroke-linecap="round" stroke-linejoin="round" stroke-width="1.5"/><path id="path2165" d="M174.88,302.5V2.5h37.5v300Z" stroke="#000" stroke-width="5" fill-rule="evenodd"/><path id="path3160" d="M112.38,19a25,25,0,1,1-25,25A25,25,0,0,1,112.38,19Z" stroke="#000" stroke-linecap="round" stroke-linejoin="round" stroke-width="1.5"/><path id="path3162" d="M112.38,89a25,25,0,1,1-25,25A25,25,0,0,1,112.38,89Z" stroke="#000" stroke-linecap="round" stroke-linejoin="round" stroke-width="1.5"/><path id="path3164" d="M112.38,159a25,25,0,1,1-25,25A25,25,0,0,1,112.38,159Z" stroke="#000" stroke-linecap="round" stroke-linejoin="round" stroke-width="1.5"/></svg>