<svg id="_4" data-name="4" xmlns="http://www.w3.org/2000/svg" viewBox="0 0 219.75 305"><path id="path2163" d="M191.32,233.5a25,25,0,1,1-25,25A25,25,0,0,1,191.32,233.5Z" stroke="#000" stroke-linecap="round" stroke-linejoin="round" stroke-width="1.5"/><path id="path3160" d="M191.32,21.5a25,25,0,1,1-25,25A25,25,0,0,1,191.32,21.5Z" stroke="#000" stroke-linecap="round" stroke-linejoin="round" stroke-width="1.5"/><path id="path3162" d="M191.32,91.5a25,25,0,1,1-25,25A25,25,0,0,1,191.32,91.5Z" stroke="#000" stroke-linecap="round" stroke-linejoin="round" stroke-width="1.5"/><path id="path3164" d="M191.32,161.5a25,25,0,1,1-25,25A25,25,0,0,1,191.32,161.5Z" stroke="#000" stroke-linecap="round" stroke-linejoin="round" stroke-width="1.5"/></svg>