<svg id="_0" data-name="0" xmlns="http://www.w3.org/2000/svg" viewBox="0 0 219.75 305"><g id="g10810"><path id="path8738" d="M214.38,152.5c0,29.32-46.79,53.09-104.5,53.09S5.38,181.82,5.38,152.5s46.78-53.09,104.5-53.09c57.31,0,103.92,23.45,104.49,52.56" fill="none" stroke="#000" stroke-linecap="round" stroke-width="10.75"/><path id="path10645" d="M209.63,136.65c-13.29,21.57-52.94,37.23-99.75,37.23s-86.35-15.61-99.69-37.13" fill="none" stroke="#000" stroke-linecap="round" stroke-width="8.74"/><path id="path10638" d="M111,174c-9.43-9.8-14.85-21.28-14.85-33.54,0-15.23,8.36-29.24,22.36-40.34" fill="none" stroke="#000" stroke-linecap="round" stroke-width="8.74"/><path id="path10630" d="M148.58,170a44.81,44.81,0,0,1-7.76-24.73c0-14.55,7.64-28,20.54-38.85" fill="none" stroke="#000" stroke-linecap="round" stroke-width="8.74"/><path id="path10622" d="M67.83,169.57c-8-9.22-12.53-19.78-12.53-31,0-13.07,6.15-25.24,16.75-35.45" fill="none" stroke="#000" stroke-linecap="round" stroke-width="8.74"/></g></svg>