<?xml version="1.0" encoding="utf-8"?>
<!-- Generator: Adobe Illustrator 26.1.0, SVG Export Plug-In . SVG Version: 6.00 Build 0)  -->
<svg version="1.1" xmlns="http://www.w3.org/2000/svg" xmlns:xlink="http://www.w3.org/1999/xlink" x="0px" y="0px"
	 viewBox="0 0 221 313.1" style="enable-background:new 0 0 221 313.1;" xml:space="preserve">
<style type="text/css">
	.st0{display:none;}
	.st1{display:inline;stroke:#000000;stroke-width:1.5;stroke-linecap:round;stroke-linejoin:round;}
	.st2{display:inline;fill-rule:evenodd;clip-rule:evenodd;stroke:#000000;stroke-width:5;}
	.st3{stroke:#000000;stroke-width:1.5;stroke-linecap:round;stroke-linejoin:round;}
	.st4{fill-rule:evenodd;clip-rule:evenodd;stroke:#000000;stroke-width:5;}
	.st5{display:inline;}
	.st6{stroke:#000000;stroke-width:1.5;stroke-linecap:round;stroke-linejoin:round;stroke-miterlimit:20;}
	.st7{fill:none;stroke:#000000;stroke-width:10.7534;stroke-linecap:round;}
	.st8{fill:none;stroke:#000000;stroke-width:8.7432;stroke-linecap:round;}
</style>
<g id="_x31_3" xmlns:svg="http://www.w3.org/2000/svg" class="st0">
	<path id="path2163" class="st1" d="M33,205c13.8,0,25,11.2,25,25s-11.2,25-25,25S8,243.8,8,230S19.2,205,33,205z"/>
	<path id="path2165" class="st2" d="M95.5,306.5V6.5H133v300H95.5L95.5,306.5L95.5,306.5z"/>
	<path id="path3138" class="st2" d="M175.5,306.5V6.5H213v300H175.5L175.5,306.5L175.5,306.5z"/>
	<path id="path3160" class="st1" d="M33,53c13.8,0,25,11.2,25,25s-11.2,25-25,25S8,91.8,8,78S19.2,53,33,53z"/>
	<path id="path3162" class="st1" d="M33,129c13.8,0,25,11.2,25,25s-11.2,25-25,25S8,167.8,8,154S19.2,129,33,129z"/>
</g>
<g id="_x31_2">
	<path id="path2163_00000117651468666367989360000012079861866848025497_" class="st3" d="M33,175c13.8,0,25,11.2,25,25
		s-11.2,25-25,25S8,213.8,8,200S19.2,175,33,175z"/>
	<path id="path2165_00000075147490402480765800000002318562187055248043_" class="st4" d="M95.5,306.5V6.5H133v300H95.5L95.5,306.5
		L95.5,306.5z"/>
	<path id="path3138_00000162330362331157368240000010204433313267625365_" class="st4" d="M175.5,306.5V6.5H213v300H175.5
		L175.5,306.5L175.5,306.5z"/>
	<path id="path3160_00000039840144141809422210000015704550890941422010_" class="st3" d="M33,83c13.8,0,25,11.2,25,25
		s-11.2,25-25,25S8,121.8,8,108S19.2,83,33,83z"/>
</g>
<g id="_x31_0" class="st0">
	<g class="st5">
		<path id="path3138_00000005967872105170253750000015559055933462862502_" class="st4" d="M91.7,306.5V6.5h37.5v300H91.7
			L91.7,306.5L91.7,306.5z"/>
		<path id="path3140" class="st4" d="M171.7,306.5V6.5h37.5v300H171.7L171.7,306.5L171.7,306.5z"/>
	</g>
</g>
<g id="_x39_" class="st0">
	<g class="st5">
		<path id="path2163_00000049187157440653829070000011954769280049289138_" class="st6" d="M113,235c13.8,0,25,11.2,25,25
			c0,13.8-11.2,25-25,25s-25-11.2-25-25C88,246.2,99.2,235,113,235z"/>
		<path id="path2165_00000060000743915529895990000016805723573108613272_" class="st4" d="M175.5,306.5V6.5H213v300H175.5
			L175.5,306.5L175.5,306.5z"/>
		<path id="path3160_00000037651917543410013860000013546778627430857658_" class="st6" d="M113,23c13.8,0,25,11.2,25,25
			s-11.2,25-25,25S88,61.8,88,48S99.2,23,113,23z"/>
		<path id="path3162_00000065761117377195572850000009956288145940935085_" class="st6" d="M113,93c13.8,0,25,11.2,25,25
			s-11.2,25-25,25s-25-11.2-25-25S99.2,93,113,93z"/>
		<path id="path3164_00000087387293570914945960000007690669559551586724_" class="st6" d="M113,163c13.8,0,25,11.2,25,25
			s-11.2,25-25,25s-25-11.2-25-25S99.2,163,113,163z"/>
	</g>
</g>
<g id="_x38_" class="st0">
	<g class="st5">
		<path id="path2163_00000059989974723029086610000010910037127696537258_" class="st3" d="M113,205c13.8,0,25,11.2,25,25
			s-11.2,25-25,25s-25-11.2-25-25S99.2,205,113,205z"/>
		<path id="path2165_00000061451058122375838920000008234979339043284141_" class="st4" d="M175.5,306.5V6.5H213v300H175.5
			L175.5,306.5L175.5,306.5z"/>
		<path id="path3160_00000040557325662482547660000001308398230552570263_" class="st3" d="M113,53c13.8,0,25,11.2,25,25
			s-11.2,25-25,25S88,91.8,88,78S99.2,53,113,53z"/>
		<path id="path3162_00000072991177013965808980000017138772597811687317_" class="st3" d="M113,129c13.8,0,25,11.2,25,25
			s-11.2,25-25,25s-25-11.2-25-25S99.2,129,113,129z"/>
	</g>
</g>
<g id="_x37_" class="st0">
	<g class="st5">
		<path id="path2163_00000038381396513524916480000007997097092422317963_" class="st3" d="M113,175c13.8,0,25,11.2,25,25
			s-11.2,25-25,25s-25-11.2-25-25S99.2,175,113,175z"/>
		<path id="path2165_00000145056177235189366950000002670940116947581608_" class="st4" d="M175.5,306.5V6.5H213v300H175.5
			L175.5,306.5L175.5,306.5z"/>
		<path id="path3160_00000162336720362561809950000009112860159882582955_" class="st3" d="M113,83c13.8,0,25,11.2,25,25
			s-11.2,25-25,25s-25-11.2-25-25S99.2,83,113,83z"/>
	</g>
</g>
<g id="_x36_" class="st0">
	<g class="st5">
		<path id="path2163_00000127043582153612135530000015485022460822256273_" class="st3" d="M112.7,129c13.8,0,25,11.2,25,25
			s-11.2,25-25,25s-25-11.2-25-25S98.9,129,112.7,129z"/>
		<path id="path2165_00000044869212524248458180000014148250308812186003_" class="st4" d="M175.2,306.5V6.5h37.5v300H175.2
			L175.2,306.5L175.2,306.5z"/>
	</g>
</g>
<g id="_x31_1" class="st0">
	<path id="path2163_00000072961964978846619700000012889889129126862004_" class="st1" d="M33,129c13.8,0,25,11.2,25,25
		s-11.2,25-25,25S8,167.8,8,154S19.2,129,33,129z"/>
	<g class="st5">
		<path id="path2165_00000168086341690274784250000011402400511725085312_" class="st4" d="M91.7,306.5V6.5h37.5v300H91.7
			L91.7,306.5L91.7,306.5z"/>
		<path id="path3138_00000017513695457040656900000014835030335925456789_" class="st4" d="M171.7,306.5V6.5h37.5v300H171.7
			L171.7,306.5L171.7,306.5z"/>
	</g>
</g>
<g id="_x35_" class="st0">
	<path id="path3140_00000089574816466381013500000011024548460302789805_" class="st2" d="M174.8,306.5V6.5h37.5v300H174.8
		L174.8,306.5L174.8,306.5z"/>
</g>
<g id="_x34_" class="st0">
	<g class="st5">
		<path id="path2163_00000098932190896524791070000014026408561207267758_" class="st3" d="M191.9,237.5c13.8,0,25,11.2,25,25
			s-11.2,25-25,25s-25-11.2-25-25S178.1,237.5,191.9,237.5z"/>
		<path id="path3160_00000101065488154403258030000016192137864194810032_" class="st3" d="M191.9,25.5c13.8,0,25,11.2,25,25
			s-11.2,25-25,25s-25-11.2-25-25S178.1,25.5,191.9,25.5z"/>
		<path id="path3162_00000065059039563130405260000001105316038200960414_" class="st3" d="M191.9,95.5c13.8,0,25,11.2,25,25
			s-11.2,25-25,25s-25-11.2-25-25S178.1,95.5,191.9,95.5z"/>
		<path id="path3164" class="st3" d="M191.9,165.5c13.8,0,25,11.2,25,25s-11.2,25-25,25s-25-11.2-25-25S178.1,165.5,191.9,165.5z"/>
	</g>
</g>
<g id="_x33_" class="st0">
	<g class="st5">
		<path id="path2163_00000059269926578309049200000001051426934360695480_" class="st3" d="M191.6,207.5c13.8,0,25,11.2,25,25
			s-11.2,25-25,25s-25-11.2-25-25S177.8,207.5,191.6,207.5z"/>
		<path id="path3160_00000035528202024168937670000013850505516713447303_" class="st3" d="M191.6,55.5c13.8,0,25,11.2,25,25
			s-11.2,25-25,25s-25-11.2-25-25S177.8,55.5,191.6,55.5z"/>
		<path id="path3162_00000109715116647675473590000003476710064320546690_" class="st3" d="M191.6,131.5c13.8,0,25,11.2,25,25
			s-11.2,25-25,25s-25-11.2-25-25S177.8,131.5,191.6,131.5z"/>
	</g>
</g>
<g id="_x32_" class="st0">
	<g class="st5">
		<path id="path2163_00000077301031992286064530000007237274713122085276_" class="st3" d="M191.6,177.5c13.8,0,25,11.2,25,25
			s-11.2,25-25,25s-25-11.2-25-25S177.8,177.5,191.6,177.5z"/>
		<path id="path3160_00000126321183629334426280000005992607094146129578_" class="st3" d="M191.6,85.5c13.8,0,25,11.2,25,25
			s-11.2,25-25,25s-25-11.2-25-25S177.8,85.5,191.6,85.5z"/>
	</g>
</g>
<g id="_x31_" class="st0">
	<path id="path2163_00000069378453906441854340000002703151745587769984_" class="st1" d="M216.6,156.5c0,13.8-11.2,25-25,25
		c-13.8,0-25-11.2-25-25c0-13.8,11.2-25,25-25C205.4,131.5,216.6,142.7,216.6,156.5z"/>
</g>
<g id="_x30_" class="st0">
	<g id="g10810" transform="translate(0.939169,-13.96987)" class="st5">
		<path id="path8738" class="st7" d="M214,170.5c0,29.3-46.8,53.1-104.5,53.1C51.8,223.6,5,199.8,5,170.5
			c0-29.3,46.8-53.1,104.5-53.1c57.3,0,103.9,23.4,104.5,52.6"/>
		<path id="path10645" class="st8" d="M209.3,154.7c-13.3,21.6-52.9,37.2-99.8,37.2c-46.7,0-86.3-15.6-99.7-37.1"/>
		<path id="path10638" class="st8" d="M110.6,192c-9.4-9.8-14.8-21.3-14.8-33.5c0-15.2,8.4-29.2,22.4-40.3"/>
		<path id="path10630" class="st8" d="M148.2,188c-5-7.6-7.8-16-7.8-24.7c0-14.6,7.6-28,20.5-38.9"/>
		<path id="path10622" class="st8" d="M67.5,187.6c-8-9.2-12.5-19.8-12.5-31c0-13.1,6.2-25.2,16.7-35.4"/>
	</g>
</g>
</svg>
