<svg xmlns="http://www.w3.org/2000/svg" viewBox="0 0 332 233"><g id="fond" opacity="0.82"><rect id="haut-gauche-C" x="46.57" y="20.25" width="119" height="147" fill="#999" opacity="0.83"/><rect id="haut-droite-G" x="175.57" y="19.25" width="149" height="147" fill="#999" opacity="0.83"/><rect id="bas-gauche" x="46.57" y="161.25" width="116" height="67" fill="#c7b299" opacity="0.85"/><rect id="bas-droite" x="173.57" y="161.25" width="151" height="67" fill="#c7b299" opacity="0.85"/><path d="M79.92,171.28H75.71v20.05h-1V171.28H70.47v-1h9.45Z" fill="#fff1d4"/><path d="M87.52,177,80.76,190.3h6.76v1H79.6v-1L86.37,177H79.6v-1h7.92Z" fill="#fff1d4"/><path d="M93.57,191.49a4.11,4.11,0,0,1-1.64-.33,4.32,4.32,0,0,1-1.32-.89,4.25,4.25,0,0,1-.89-1.33,4,4,0,0,1-.33-1.63V180a4.11,4.11,0,0,1,.33-1.64,4.21,4.21,0,0,1,.89-1.32,4.15,4.15,0,0,1,1.32-.89,4.24,4.24,0,0,1,3.28,0,4.17,4.17,0,0,1,2.21,2.21,4.11,4.11,0,0,1,.33,1.64v7.33a4,4,0,0,1-.33,1.63,4.09,4.09,0,0,1-.89,1.33,4.21,4.21,0,0,1-1.32.89A4.11,4.11,0,0,1,93.57,191.49Zm0-14.66a3,3,0,0,0-1.23.25,3.31,3.31,0,0,0-1,.67,3.19,3.19,0,0,0-.67,1,3.14,3.14,0,0,0-.25,1.23v7.33a3.22,3.22,0,0,0,.25,1.23,3.1,3.1,0,0,0,1.67,1.67,3.18,3.18,0,0,0,1.23.25,3.14,3.14,0,0,0,1.23-.25,3.19,3.19,0,0,0,1-.67,3.14,3.14,0,0,0,.67-1,3,3,0,0,0,.25-1.23V180a3,3,0,0,0-.25-1.23,3,3,0,0,0-.67-1,3.19,3.19,0,0,0-1-.67A3,3,0,0,0,93.57,176.83Z" fill="#fff1d4"/><path d="M99.93,191.33V169h1v22.36Z" fill="#fff1d4"/><path d="M111.13,191.33,106,183h-1.53v8.36h-1V169h1v13H106l.13-.06,4-5.92h1.24L107,182.51l5.39,8.82Z" fill="#fff1d4"/><path d="M115.82,171.58a3.56,3.56,0,0,1-.14.79,4.39,4.39,0,0,1-.41.95,4.78,4.78,0,0,1-.74,1l-.6-.57a3.7,3.7,0,0,0,.66-.85,3.85,3.85,0,0,0,.31-.8h-.19a1.07,1.07,0,0,1-.79-.33,1.06,1.06,0,0,1-.33-.79,1.11,1.11,0,0,1,1.12-1.12,1.13,1.13,0,0,1,.8.32,1.09,1.09,0,0,1,.32.8v.06C115.83,171.17,115.83,171.34,115.82,171.58Z" fill="#fff1d4"/><path d="M116.93,175.71h1v15.4h-1V176.77h-1v-1.06Zm.25-3.56a.78.78,0,1,1,0-1.55.78.78,0,0,1,.54.21.79.79,0,0,1,0,1.13A.78.78,0,0,1,117.18,172.15Z" fill="#fff1d4"/><path d="M124.94,175.8a4.11,4.11,0,0,1,1.64.33,4.17,4.17,0,0,1,2.21,2.21,4.11,4.11,0,0,1,.33,1.64v11.35h-1V180a3,3,0,0,0-.25-1.23,3.1,3.1,0,0,0-1.67-1.67,3.15,3.15,0,0,0-2.46,0,3.1,3.1,0,0,0-1.67,1.67,3,3,0,0,0-.25,1.23v11.35h-1V176h1v1.28a4,4,0,0,1,1.4-1.06A4.14,4.14,0,0,1,124.94,175.8Z" fill="#fff1d4"/><path d="M114.85,186V208.4h-1v-1.28a4.41,4.41,0,0,1-1.4,1,4,4,0,0,1-1.74.39,4.07,4.07,0,0,1-1.64-.33,4.37,4.37,0,0,1-1.33-.89,4.32,4.32,0,0,1-.89-1.32,4.28,4.28,0,0,1-.32-1.64v-7.33a4.28,4.28,0,0,1,.32-1.64A4.14,4.14,0,0,1,109,193.2a4.15,4.15,0,0,1,4.78,1.11V186Zm-4.17,21.49a3.22,3.22,0,0,0,1.23-.25,3.26,3.26,0,0,0,1-.67,3.16,3.16,0,0,0,.68-1,3.21,3.21,0,0,0,.24-1.23v-7.33a3.14,3.14,0,0,0-.24-1.23,3.06,3.06,0,0,0-.68-1,3.26,3.26,0,0,0-1-.67,3.18,3.18,0,0,0-2.47,0,3.26,3.26,0,0,0-1,.67,3,3,0,0,0-.67,1,3,3,0,0,0-.25,1.23v7.33a3,3,0,0,0,.25,1.23,3.14,3.14,0,0,0,.67,1,3.26,3.26,0,0,0,1,.67A3.23,3.23,0,0,0,110.68,207.53Z" fill="#fff1d4"/><path d="M125.39,193V208.4h-1v-1.28a4.41,4.41,0,0,1-1.4,1,4,4,0,0,1-1.75.39,4.06,4.06,0,0,1-1.63-.33,4.37,4.37,0,0,1-1.33-.89,4.32,4.32,0,0,1-.89-1.32,4.28,4.28,0,0,1-.32-1.64V193h1v11.35a3.21,3.21,0,0,0,.24,1.23,3.16,3.16,0,0,0,.68,1,3.26,3.26,0,0,0,1,.67,3.18,3.18,0,0,0,2.47,0,3.26,3.26,0,0,0,1-.67,3.14,3.14,0,0,0,.67-1,3,3,0,0,0,.25-1.23V193Z" fill="#fff1d4"/><path d="M101.18,204.49a4.15,4.15,0,0,1,1.73.35,4.74,4.74,0,0,1,1.4,1,4.43,4.43,0,0,1,1,1.42,4.32,4.32,0,0,1,.35,1.71v4.31a4.31,4.31,0,0,1-1.24,3.05,4.65,4.65,0,0,1-1.34,1,4.34,4.34,0,0,1-1.63.44H98.09v7.85h-1V204.49h4.12Zm3.4,4.45a3.32,3.32,0,0,0-.28-1.31,3.64,3.64,0,0,0-1.84-1.84,3.38,3.38,0,0,0-1.34-.27h-3v11.16h3.09a3.35,3.35,0,0,0,1.34-.28,3.56,3.56,0,0,0,1.07-.75,3.46,3.46,0,0,0,.72-1.08,3.18,3.18,0,0,0,.27-1.32Z" fill="#fff1d4"/><path d="M111.59,210a3.77,3.77,0,0,1,1.59.32,3.81,3.81,0,0,1,1.23.89,4.19,4.19,0,0,1,.82,1.33,4.62,4.62,0,0,1,.29,1.63v11.35h-1v-1.27a4.53,4.53,0,0,1-1.4,1,4,4,0,0,1-1.75.39,4.06,4.06,0,0,1-1.63-.33,4.14,4.14,0,0,1-2.22-2.21,4.1,4.1,0,0,1-.32-1.64v-.87c0-1.29.78-2.23,2.36-2.81.19-.08.51-.21,1-.37l1.43-.55,1.48-.56,1.09-.42v-1.75a3.31,3.31,0,0,0-.79-2.23,2.66,2.66,0,0,0-2.11-.92,3,3,0,0,0-1.21.25,3.44,3.44,0,0,0-1,.67,3.31,3.31,0,0,0-.69,1,3.22,3.22,0,0,0-.25,1.23h-1a4.06,4.06,0,0,1,.33-1.63,4.12,4.12,0,0,1,2.22-2.22A4.05,4.05,0,0,1,111.59,210Zm2.9,7.82v-.78c-.31.13-.69.27-1.15.44L112,218l-1.25.49-.81.31a4,4,0,0,0-1.15.65,1.42,1.42,0,0,0-.57,1.19v.87a3.14,3.14,0,0,0,.25,1.23,3.19,3.19,0,0,0,.67,1,3.31,3.31,0,0,0,1,.67,3.18,3.18,0,0,0,2.47,0,3.26,3.26,0,0,0,1-.67,3,3,0,0,0,.67-1,3,3,0,0,0,.25-1.23Z" fill="#fff1d4"/><path d="M124,210v1h-1.21a3.06,3.06,0,0,0-1.22.25,3.58,3.58,0,0,0-1,.67,3.11,3.11,0,0,0-.68,1,3,3,0,0,0-.25,1.23v11.35h-1V211.22h-1v-1h2.06v1.28a4,4,0,0,1,3-1.43Z" fill="#fff1d4"/><path d="M131.83,217c-.19.06-.5.18-.94.36s-.91.36-1.41.54l-1.49.57c-.47.18-.85.32-1.12.4v2.65a3,3,0,0,0,.25,1.23,3.1,3.1,0,0,0,1.67,1.67,3.15,3.15,0,0,0,2.46,0,3.1,3.1,0,0,0,1.67-1.67,3,3,0,0,0,.25-1.23h1a4.11,4.11,0,0,1-.33,1.64,4.17,4.17,0,0,1-2.21,2.21,4.24,4.24,0,0,1-3.28,0,4.17,4.17,0,0,1-2.21-2.21,4.11,4.11,0,0,1-.33-1.64v-7.33a4.06,4.06,0,0,1,.33-1.63,4.14,4.14,0,0,1,2.21-2.22,4.36,4.36,0,0,1,3.28,0,4.14,4.14,0,0,1,2.21,2.22,4,4,0,0,1,.33,1.6v0C134.2,215.5,133.41,216.44,131.83,217Zm1-12.16.31,1-6,1.87-.31-1Zm-2.84,6.2a3.14,3.14,0,0,0-1.23.25,3.19,3.19,0,0,0-1,.67,3.44,3.44,0,0,0-.67,1,3,3,0,0,0-.25,1.23v3.59l1.16-.45,1.37-.52,1.26-.47.83-.31a4.49,4.49,0,0,0,1.12-.65,1.47,1.47,0,0,0,.56-1.22,2.88,2.88,0,0,0-.25-1.21,3.39,3.39,0,0,0-.67-1,3.19,3.19,0,0,0-1-.67A3.14,3.14,0,0,0,130,211.06Z" fill="#fff1d4"/><path d="M144.74,203.21v22.35h-1v-1.27a4.65,4.65,0,0,1-1.4,1,4,4,0,0,1-1.75.39,4.11,4.11,0,0,1-1.64-.33,4.17,4.17,0,0,1-2.21-2.21,4.11,4.11,0,0,1-.33-1.64v-7.33a4.06,4.06,0,0,1,.33-1.63,4.14,4.14,0,0,1,2.21-2.22,4.15,4.15,0,0,1,4.79,1.11v-8.26Zm-4.18,21.48a3,3,0,0,0,1.23-.25,3.1,3.1,0,0,0,1.67-1.67,3,3,0,0,0,.25-1.23v-7.33a3,3,0,0,0-.25-1.23,3.44,3.44,0,0,0-.67-1,3.19,3.19,0,0,0-1-.67,3.15,3.15,0,0,0-2.46,0,3.19,3.19,0,0,0-1,.67,3.44,3.44,0,0,0-.67,1,3,3,0,0,0-.25,1.23v7.33a3,3,0,0,0,.25,1.23,3.1,3.1,0,0,0,1.67,1.67A3,3,0,0,0,140.56,224.69Z" fill="#fff1d4"/><path d="M152.91,217c-.19.06-.5.18-.94.36s-.91.36-1.42.54l-1.48.57c-.48.18-.85.32-1.12.4v2.65a3,3,0,0,0,.25,1.23,3,3,0,0,0,.67,1,3.19,3.19,0,0,0,1,.67,3.15,3.15,0,0,0,2.46,0,3.1,3.1,0,0,0,1.67-1.67,3.14,3.14,0,0,0,.25-1.23h1a4.11,4.11,0,0,1-.33,1.64,4,4,0,0,1-.89,1.32,4.15,4.15,0,0,1-1.32.89,4.24,4.24,0,0,1-3.28,0,4.17,4.17,0,0,1-2.21-2.21,4.11,4.11,0,0,1-.33-1.64v-7.33a4.06,4.06,0,0,1,.33-1.63,4.14,4.14,0,0,1,2.21-2.22,4.36,4.36,0,0,1,3.28,0,4.32,4.32,0,0,1,1.32.89,4.2,4.2,0,0,1,.89,1.33,4,4,0,0,1,.33,1.6v0C155.28,215.5,154.49,216.44,152.91,217Zm1-12.16.31,1-6,1.87-.31-1Zm-2.84,6.2a3.14,3.14,0,0,0-1.23.25,3.19,3.19,0,0,0-1,.67,3.25,3.25,0,0,0-.67,1,3,3,0,0,0-.25,1.23v3.59l1.15-.45,1.38-.52,1.26-.47.82-.31a4.37,4.37,0,0,0,1.13-.65,1.47,1.47,0,0,0,.56-1.22A3,3,0,0,0,154,213a3.39,3.39,0,0,0-.67-1,3.19,3.19,0,0,0-1-.67A3.14,3.14,0,0,0,151.1,211.06Z" fill="#fff1d4"/></g><g id="cadre"><line x1="168.57" y1="21.25" x2="168.57" y2="229.25" fill="none" stroke="#000" stroke-miterlimit="10" stroke-width="17.01" opacity="0.88"/><line x1="46.07" y1="229.75" x2="324.57" y2="229.25" fill="none" stroke="#000" stroke-miterlimit="10" stroke-width="0.85"/><line x1="46.07" y1="22.75" x2="324.57" y2="22.25" fill="none" stroke="#000" stroke-miterlimit="10" stroke-width="5.67" opacity="0.83"/><line x1="324.57" y1="229.25" x2="324.57" y2="22.25" fill="none" stroke="#000" stroke-miterlimit="10" stroke-width="0.57"/><line x1="46.07" y1="22.75" x2="46.07" y2="229.75" fill="none" stroke="#000" stroke-miterlimit="10" stroke-width="0.57"/><line x1="46.07" y1="20.75" x2="324.07" y2="20.75" fill="none" stroke="#ff0" stroke-miterlimit="10" stroke-width="0.57"/></g><g id="spirale"><line x1="50.07" y1="30.47" x2="50.07" y2="13.47" fill="none" stroke="#000" stroke-miterlimit="10" stroke-width="4.25"/><line x1="61.28" y1="30.47" x2="61.28" y2="13.47" fill="none" stroke="#000" stroke-miterlimit="10" stroke-width="4.25"/><line x1="72.48" y1="30.47" x2="72.48" y2="13.47" fill="none" stroke="#000" stroke-miterlimit="10" stroke-width="4.25"/><line x1="83.69" y1="30.47" x2="83.69" y2="13.47" fill="none" stroke="#000" stroke-miterlimit="10" stroke-width="4.25"/><line x1="94.9" y1="30.47" x2="94.9" y2="13.47" fill="none" stroke="#000" stroke-miterlimit="10" stroke-width="4.25"/><line x1="106.11" y1="30.47" x2="106.11" y2="13.47" fill="none" stroke="#000" stroke-miterlimit="10" stroke-width="4.25"/><line x1="117.32" y1="30.47" x2="117.32" y2="13.47" fill="none" stroke="#000" stroke-miterlimit="10" stroke-width="4.25"/><line x1="128.52" y1="30.47" x2="128.52" y2="13.47" fill="none" stroke="#000" stroke-miterlimit="10" stroke-width="4.25"/><line x1="139.73" y1="30.47" x2="139.73" y2="13.47" fill="none" stroke="#000" stroke-miterlimit="10" stroke-width="4.25"/><line x1="150.94" y1="30.47" x2="150.94" y2="13.47" fill="none" stroke="#000" stroke-miterlimit="10" stroke-width="4.25"/><line x1="162.15" y1="30.47" x2="162.15" y2="13.47" fill="none" stroke="#000" stroke-miterlimit="10" stroke-width="4.25"/><line x1="173.35" y1="30.47" x2="173.35" y2="13.47" fill="none" stroke="#000" stroke-miterlimit="10" stroke-width="4.25"/><line x1="184.56" y1="30.47" x2="184.56" y2="13.47" fill="none" stroke="#000" stroke-miterlimit="10" stroke-width="4.25"/><line x1="195.77" y1="30.47" x2="195.77" y2="13.47" fill="none" stroke="#000" stroke-miterlimit="10" stroke-width="4.25"/><line x1="206.98" y1="30.47" x2="206.98" y2="13.47" fill="none" stroke="#000" stroke-miterlimit="10" stroke-width="4.25"/><line x1="218.19" y1="30.47" x2="218.19" y2="13.47" fill="none" stroke="#000" stroke-miterlimit="10" stroke-width="4.25"/><line x1="229.39" y1="30.47" x2="229.39" y2="13.47" fill="none" stroke="#000" stroke-miterlimit="10" stroke-width="4.25"/><line x1="240.6" y1="30.47" x2="240.6" y2="13.47" fill="none" stroke="#000" stroke-miterlimit="10" stroke-width="4.25"/><line x1="251.81" y1="30.47" x2="251.81" y2="13.47" fill="none" stroke="#000" stroke-miterlimit="10" stroke-width="4.25"/><line x1="263.02" y1="30.47" x2="263.02" y2="13.47" fill="none" stroke="#000" stroke-miterlimit="10" stroke-width="4.25"/><line x1="274.23" y1="30.47" x2="274.23" y2="13.47" fill="none" stroke="#000" stroke-miterlimit="10" stroke-width="4.25"/><line x1="285.43" y1="30.47" x2="285.43" y2="13.47" fill="none" stroke="#000" stroke-miterlimit="10" stroke-width="4.25"/><line x1="296.64" y1="30.47" x2="296.64" y2="13.47" fill="none" stroke="#000" stroke-miterlimit="10" stroke-width="4.25"/><line x1="307.85" y1="30.47" x2="307.85" y2="13.47" fill="none" stroke="#000" stroke-miterlimit="10" stroke-width="4.25"/><line x1="319.06" y1="30.47" x2="319.06" y2="13.47" fill="none" stroke="#000" stroke-miterlimit="10" stroke-width="4.25"/></g></svg>